<?xml version="1.0" encoding="UTF-8"?>
<svg width="31px" height="30px" viewBox="0 0 31 30" version="1.1" xmlns="http://www.w3.org/2000/svg" xmlns:xlink="http://www.w3.org/1999/xlink">
    <!-- Generator: Sketch 42 (36781) - http://www.bohemiancoding.com/sketch -->
    <title>Heartbeat icon</title>
    <desc>Created with Sketch.</desc>
    <defs></defs>
    <g id="Page-1" stroke="none" stroke-width="1" fill="none" fill-rule="evenodd">
        <g id="Blog-category-Mobile-view-Copy" transform="translate(-50.000000, -1595.000000)" stroke="#9BC3FA">
            <g id="Articles" transform="translate(20.000000, 600.000000)">
                <g id="2" transform="translate(0.000000, 515.000000)">
                    <g id="Heartbeat-category" transform="translate(30.000000, 480.000000)">
                        <g id="Heartbeat-icon">
                            <g id="Group" transform="translate(0.500000, 0.500000)">
                                <polyline id="Shape" points="1.8 14 10 14 12 10 17 18 19 14 28.2 14"></polyline>
                                <path d="M21.8,0 C19,0 16.5,1.5 15,3.7 C13.5,1.5 11,0 8.2,0 C3.7,0 0,3.7 0,8.3 C0,16.6 15,29 15,29 C15,29 30,16.6 30,8.3 C30,3.7 26.3,0 21.8,0 Z" id="Shape" stroke-linecap="square"></path>
                            </g>
                        </g>
                    </g>
                </g>
            </g>
        </g>
    </g>
</svg>