<?xml version="1.0" encoding="UTF-8"?>
<svg width="20px" height="23px" viewBox="0 0 20 23" version="1.1" xmlns="http://www.w3.org/2000/svg" xmlns:xlink="http://www.w3.org/1999/xlink">
    <!-- Generator: Sketch 44.1 (41455) - http://www.bohemiancoding.com/sketch -->
    <title>Support icon</title>
    <desc>Created with Sketch.</desc>
    <defs></defs>
    <g id="Page-1" stroke="none" stroke-width="1" fill="none" fill-rule="evenodd" stroke-linecap="square">
        <g id="Blog-homepage" transform="translate(-304.000000, -3568.000000)" stroke="#4B546B">
            <g id="Best-of-Time-Doctor-blog" transform="translate(-15.000000, 3025.000000)">
                <g id="Support-articles" transform="translate(318.000000, 544.000000)">
                    <g id="Support-icon" transform="translate(2.000000, 0.000000)">
                        <g id="Group" transform="translate(0.338710, 0.338710)">
                            <path d="M10.8387097,20.3225806 L14.9032258,20.3225806 C16.3996452,20.3225806 17.6129032,19.1093226 17.6129032,17.6129032 L17.6129032,14.9032258" id="Shape"></path>
                            <path d="M4.06451613,10.1612903 L-2.30926389e-14,10.1612903 L-2.30926389e-14,14.9032258 C-2.30926389e-14,16.0257097 0.909774194,16.9354839 2.03225806,16.9354839 L4.06451613,16.9354839 L4.06451613,10.1612903 Z" id="Shape"></path>
                            <path d="M17.6129032,10.1612903 L13.5483871,10.1612903 L13.5483871,16.9354839 L15.5806452,16.9354839 C16.703129,16.9354839 17.6129032,16.0257097 17.6129032,14.9032258 L17.6129032,10.1612903 Z" id="Shape"></path>
                            <path d="M17.6129032,10.1612903 L17.6129032,8.80645161 C17.6129032,3.94258065 13.6703226,1.47437618e-13 8.80645161,1.47437618e-13 L8.80645161,1.47437618e-13 C3.94258065,1.47437618e-13 -2.30926389e-14,3.94258065 -2.30926389e-14,8.80645161 L-2.30926389e-14,10.1612903" id="Shape"></path>
                        </g>
                    </g>
                </g>
            </g>
        </g>
    </g>
</svg>