<?xml version="1.0" encoding="UTF-8"?>
<svg width="201px" height="44px" viewBox="0 0 201 44" version="1.1" xmlns="http://www.w3.org/2000/svg" xmlns:xlink="http://www.w3.org/1999/xlink">
    <!-- Generator: Sketch 42 (36781) - http://www.bohemiancoding.com/sketch -->
    <title>logo</title>
    <desc>Created with Sketch.</desc>
    <defs></defs>
    <g id="Page-1" stroke="none" stroke-width="1" fill="none" fill-rule="evenodd">
        <g id="404-Page" transform="translate(-205.000000, -238.000000)">
            <g id="Text" transform="translate(201.000000, 238.000000)">
                <g id="logo" transform="translate(4.000000, 0.000000)">
                    <g>
                        <path d="M66.8305909,15.0092412 L60.8766142,15.0092412 L60.8766142,31.184466 L56.8716971,31.184466 L56.8716971,15.0092412 L50.9978187,15.0092412 L50.9978187,11.7688623 L66.8305909,11.7688623 L66.8305909,15.0092412 Z M72.9271379,31.184466 L69.0557181,31.184466 L69.0557181,16.7561121 L72.9271379,16.7561121 L72.9271379,31.184466 Z M68.8287728,13.0223422 C68.8287728,12.444494 69.0223419,11.9688875 69.4094858,11.5955087 C69.7966297,11.2221298 70.3239385,11.0354432 70.991428,11.0354432 C71.6500177,11.0354432 72.1751015,11.2221298 72.5666954,11.5955087 C72.9582892,11.9688875 73.1540832,12.444494 73.1540832,13.0223422 C73.1540832,13.6090804 72.9560643,14.0891317 72.5600205,14.4625106 C72.1639767,14.8358895 71.6411178,15.0225761 70.991428,15.0225761 C70.3417382,15.0225761 69.8188793,14.8358895 69.4228355,14.4625106 C69.0267917,14.0891317 68.8287728,13.6090804 68.8287728,13.0223422 Z M79.7178706,16.7561121 L79.8380181,18.3696342 C80.8615021,17.116148 82.2454096,16.4894143 83.9897822,16.4894143 C85.8498529,16.4894143 87.1269637,17.2228261 87.8211528,18.6896716 C88.8357369,17.2228261 90.2819425,16.4894143 92.159813,16.4894143 C93.7261884,16.4894143 94.8920526,16.9450186 95.6574405,17.8562408 C96.4228285,18.767463 96.8055168,20.1387208 96.8055168,21.9700552 L96.8055168,31.184466 L92.9340969,31.184466 L92.9340969,21.9833901 C92.9340969,21.1655126 92.7739019,20.5676709 92.4535069,20.189847 C92.1331119,19.8120232 91.5679793,19.6231141 90.758092,19.6231141 C89.6011102,19.6231141 88.8001348,20.1742841 88.3551418,21.2766408 L88.3684915,31.184466 L84.5104214,31.184466 L84.5104214,21.996725 C84.5104214,21.1610675 84.3457764,20.5565584 84.0164816,20.1831796 C83.6871868,19.8098007 83.126504,19.6231141 82.3344164,19.6231141 C81.2397336,19.6231141 80.447658,20.0764959 79.9581656,20.9832731 L79.9581656,31.184466 L76.1000955,31.184466 L76.1000955,16.7561121 L79.7178706,16.7561121 Z M106.413041,31.4511639 C104.294874,31.4511639 102.570552,30.8022056 101.240023,29.5042695 C99.9094941,28.2063335 99.2442396,26.4772597 99.2442396,24.3169963 L99.2442396,23.9436193 C99.2442396,22.4945537 99.524581,21.1988596 100.085272,20.0564981 C100.645963,18.9141366 101.440264,18.0340425 102.468198,17.4161893 C103.496132,16.7983362 104.668671,16.4894143 105.98585,16.4894143 C107.961619,16.4894143 109.516846,17.1117031 110.651578,18.3562993 C111.786311,19.6008955 112.353668,21.3655286 112.353668,23.6502517 L112.353668,25.223769 L103.155709,25.223769 C103.280307,26.1661061 103.65632,26.9217425 104.28376,27.4907007 C104.9112,28.059659 105.705501,28.3441339 106.666686,28.3441339 C108.152963,28.3441339 109.314377,27.8062986 110.150964,26.7306119 L112.046624,28.8508598 C111.468134,29.6687373 110.684958,30.3065833 109.697073,30.7644169 C108.709189,31.2222505 107.614522,31.4511639 106.413041,31.4511639 Z M105.9725,19.6097792 C105.207112,19.6097792 104.586356,19.8675845 104.110214,20.383203 C103.634071,20.8988214 103.329256,21.6366781 103.195758,22.5967951 L108.562347,22.5967951 L108.562347,22.2900926 C108.544547,21.4366552 108.313154,20.7765846 107.868161,20.309861 C107.423168,19.8431375 106.791287,19.6097792 105.9725,19.6097792 Z M121.582803,31.184466 L121.582803,11.7688623 L127.563479,11.7688623 C129.272253,11.7688623 130.800781,12.1533478 132.149109,12.9223305 C133.497438,13.6913132 134.549831,14.7847634 135.306319,16.2027141 C136.062807,17.6206648 136.441046,19.2319482 136.441046,21.0366127 L136.441046,21.9300505 C136.441046,23.734715 136.069482,25.339331 135.326344,26.7439468 C134.583205,28.1485625 133.535262,29.2375678 132.182484,30.0109955 C130.829705,30.7844231 129.303402,31.175576 127.603529,31.184466 L121.582803,31.184466 Z M125.58772,15.0092412 L125.58772,27.9707569 L127.52343,27.9707569 C129.089806,27.9707569 130.286819,27.4595911 131.114506,26.4372442 C131.942193,25.4148973 132.36493,23.9525187 132.38273,22.0500645 L132.38273,21.0232778 C132.38273,19.0497038 131.973342,17.5539883 131.154555,16.5360864 C130.335768,15.5181845 129.138755,15.0092412 127.563479,15.0092412 L125.58772,15.0092412 Z M138.492626,23.8369402 C138.492626,22.4056545 138.768518,21.1299625 139.320309,20.009826 C139.872101,18.8896894 140.666401,18.02293 141.703235,17.4095219 C142.740069,16.7961138 143.943757,16.4894143 145.314335,16.4894143 C147.263404,16.4894143 148.854231,17.0850335 150.086861,18.2762899 C151.319492,19.4675463 152.006996,21.0854971 152.149394,23.1301908 L152.176093,24.1169729 C152.176093,26.3305762 151.557562,28.1063216 150.320481,29.4442625 C149.083401,30.7822034 147.423602,31.4511639 145.341035,31.4511639 C143.258467,31.4511639 141.596443,30.7844259 140.354913,29.45093 C139.113382,28.117434 138.492626,26.3039068 138.492626,24.0102938 L138.492626,23.8369402 Z M142.350696,24.1169729 C142.350696,25.4860287 142.608789,26.5328073 143.12498,27.2573401 C143.641172,27.9818729 144.37985,28.3441339 145.341035,28.3441339 C146.27552,28.3441339 147.005297,27.9863178 147.530389,27.270675 C148.055481,26.5550322 148.318023,25.4104654 148.318023,23.8369402 C148.318023,22.4945542 148.055481,21.454443 147.530389,20.7165753 C147.005297,19.9787075 146.26662,19.6097792 145.314335,19.6097792 C144.37095,19.6097792 143.641172,19.9764851 143.12498,20.7099078 C142.608789,21.4433306 142.350696,22.5790076 142.350696,24.1169729 Z M160.555443,28.3441339 C161.267432,28.3441339 161.845914,28.1485574 162.290907,27.7573986 C162.7359,27.3662398 162.967293,26.8461842 162.985092,26.1972162 L166.602868,26.1972162 C166.593968,27.1751132 166.326976,28.0707645 165.801884,28.884197 C165.276792,29.6976296 164.558139,30.3288082 163.645904,30.7777518 C162.733668,31.2266954 161.725774,31.4511639 160.622191,31.4511639 C158.557424,31.4511639 156.928774,30.7955382 155.736193,29.4842672 C154.543611,28.1729962 153.94733,26.3616914 153.94733,24.0502984 L153.94733,23.7969355 C153.94733,21.5744423 154.539161,19.8009193 155.722843,18.4763133 C156.906524,17.1517073 158.530724,16.4894143 160.595492,16.4894143 C162.402164,16.4894143 163.850594,17.0028025 164.940827,18.0295944 C166.03106,19.0563863 166.585068,20.4231991 166.602868,22.1300739 L162.985092,22.1300739 C162.967293,21.3833162 162.7359,20.7765846 162.290907,20.309861 C161.845914,19.8431375 161.258532,19.6097792 160.528743,19.6097792 C159.629857,19.6097792 158.951253,19.9364808 158.49291,20.5898938 C158.034568,21.2433068 157.8054,22.3034202 157.8054,23.7702657 L157.8054,24.1703125 C157.8054,25.6549379 158.032343,26.7217187 158.486236,27.3706867 C158.940129,28.0196547 159.629857,28.3441339 160.555443,28.3441339 Z M173.4203,13.2090307 L173.4203,16.7561121 L175.889999,16.7561121 L175.889999,19.5831094 L173.4203,19.5831094 L173.4203,26.7839514 C173.4203,27.3173498 173.522647,27.6996129 173.727343,27.9307522 C173.93204,28.1618915 174.323628,28.2774594 174.902119,28.2774594 C175.329312,28.2774594 175.707551,28.246345 176.036846,28.1841152 L176.036846,31.1044567 C175.280357,31.335596 174.501631,31.4511639 173.700644,31.4511639 C170.995086,31.4511639 169.615629,30.0865735 169.56223,27.3573518 L169.56223,19.5831094 L167.452973,19.5831094 L167.452973,16.7561121 L169.56223,16.7561121 L169.56223,13.2090307 L173.4203,13.2090307 Z M176.631897,23.8369402 C176.631897,22.4056545 176.907788,21.1299625 177.45958,20.009826 C178.011371,18.8896894 178.805672,18.02293 179.842505,17.4095219 C180.879339,16.7961138 182.083027,16.4894143 183.453605,16.4894143 C185.402675,16.4894143 186.993501,17.0850335 188.226132,18.2762899 C189.458762,19.4675463 190.146266,21.0854971 190.288664,23.1301908 L190.315363,24.1169729 C190.315363,26.3305762 189.696832,28.1063216 188.459752,29.4442625 C187.222671,30.7822034 185.562872,31.4511639 183.480305,31.4511639 C181.397738,31.4511639 179.735714,30.7844259 178.494183,29.45093 C177.252653,28.117434 176.631897,26.3039068 176.631897,24.0102938 L176.631897,23.8369402 Z M180.489967,24.1169729 C180.489967,25.4860287 180.748059,26.5328073 181.264251,27.2573401 C181.780443,27.9818729 182.51912,28.3441339 183.480305,28.3441339 C184.41479,28.3441339 185.144568,27.9863178 185.66966,27.270675 C186.194751,26.5550322 186.457293,25.4104654 186.457293,23.8369402 C186.457293,22.4945542 186.194751,21.454443 185.66966,20.7165753 C185.144568,19.9787075 184.405891,19.6097792 183.453605,19.6097792 C182.51022,19.6097792 181.780443,19.9764851 181.264251,20.7099078 C180.748059,21.4433306 180.489967,22.5790076 180.489967,24.1169729 Z M200.803969,20.3698681 C200.278878,20.2987483 199.816092,20.2631889 199.415598,20.2631889 C197.956021,20.2631889 196.999301,20.756575 196.545408,21.743362 L196.545408,31.184466 L192.687338,31.184466 L192.687338,16.7561121 L196.331812,16.7561121 L196.43861,18.4763133 C197.212898,17.1517073 198.285315,16.4894143 199.655893,16.4894143 C200.083087,16.4894143 200.483574,16.5471983 200.857368,16.6627679 L200.803969,20.3698681 Z" id="Time-Doctor" fill="#FFFFFF"></path>
                        <path d="M43.7444426,21.8479223 C43.7444426,33.9141748 33.9518936,43.6958447 21.8722213,43.6958447 C9.79254894,43.6958447 0,33.9141748 0,21.8479223 C0,9.7816699 9.79254894,0 21.8722213,0 C33.9518936,0 43.7444426,9.7816699 43.7444426,21.8479223" id="Fill-2" fill="#DE6C2D"></path>
                        <path d="M36.603483,22.5953572 L36.603483,21.2017477 L39.5111404,21.2017477 C39.3751447,17.5653731 38.1776979,14.2105973 36.239117,11.4294813 C38.3812638,8.69587956 43.9061979,0.967166718 43.396,0.0831379728 C42.952517,-0.684066461 35.0540723,4.03729219 31.7054979,6.89033367 C28.9941362,5.01852922 25.7482,3.89213362 22.2499447,3.79405351 L22.2499447,6.57124637 L20.882717,6.57124637 L20.882717,3.80669494 C11.6991553,4.2591712 4.34854255,11.815699 4,21.2017477 L6.52917872,21.2017477 L6.52917872,22.5953572 L4,22.5953572 C4.34854255,31.98097 11.699583,39.5383696 20.882717,39.989974 L20.882717,37.2258585 L22.2499447,37.2258585 L22.2499447,40 C31.6067085,39.7375812 39.1540447,32.1078203 39.5077191,22.5953572 L36.603483,22.5953572 Z" id="Fill-3" fill="#FFFFFF"></path>
                        <path d="M20.5572964,20.3206524 L14.0799645,15.1850408 L11.8223496,17.4401476 L22.025024,28.8399922 C26.592856,20.2142835 34.5977879,9.66368155 40.9083326,2.68861359 C37.2347368,4.41871068 25.9996921,14.2956427 20.5572964,20.3206524" id="Fill-4" fill="#384158"></path>
                    </g>
                </g>
            </g>
        </g>
    </g>
</svg>