<?xml version="1.0" encoding="utf-8"?>
<!-- Generator: Adobe Illustrator 18.0.0, SVG Export Plug-In . SVG Version: 6.00 Build 0)  -->
<!DOCTYPE svg PUBLIC "-//W3C//DTD SVG 1.1//EN" "http://www.w3.org/Graphics/SVG/1.1/DTD/svg11.dtd">
<svg version="1.1" id="Layer_1" xmlns="http://www.w3.org/2000/svg" xmlns:xlink="http://www.w3.org/1999/xlink" x="0px" y="0px"
	 viewBox="-2 -2 20 20" enable-background="new -2 -2 20 20" xml:space="preserve">
<g>
	<path fill="#959DAD" d="M4.4,7v2.2H8c-0.1,0.9-1.1,2.7-3.6,2.7c-2.2,0-3.9-1.8-3.9-4s1.8-4,3.9-4c1.2,0,2.1,0.5,2.5,1l1.7-1.7
		c-1.1-1-2.5-1.7-4.3-1.7C0.8,1.5-2,4.4-2,7.9s2.8,6.4,6.4,6.4c3.7,0,6.1-2.6,6.1-6.2c0-0.4,0-0.7-0.1-1.1H4.4L4.4,7z"/>
	<path fill="#959DAD" d="M18,6.8h-1.9V4.9h-1.9v1.9h-1.9v1.9h1.9v1.9h1.9V8.7H18V6.8z"/>
</g>
</svg>
