<?xml version="1.0" encoding="utf-8"?>
<!-- Generator: Adobe Illustrator 18.0.0, SVG Export Plug-In . SVG Version: 6.00 Build 0)  -->
<!DOCTYPE svg PUBLIC "-//W3C//DTD SVG 1.1//EN" "http://www.w3.org/Graphics/SVG/1.1/DTD/svg11.dtd">
<svg version="1.1" id="Layer_1" xmlns="http://www.w3.org/2000/svg" xmlns:xlink="http://www.w3.org/1999/xlink" x="0px" y="0px"
	 viewBox="-2 -2 20 20" enable-background="new -2 -2 20 20" xml:space="preserve">
<g>
	<path fill="#959DAD" d="M5.4,5.3H9v1.8H9c0.5-0.9,1.7-1.8,3.5-1.8c3.8,0,4.4,2.3,4.4,5.4v6.2h-3.7v-5.5c0-1.3,0-3-1.9-3
		c-1.9,0-2.2,1.4-2.2,2.9v5.6H5.4L5.4,5.3z"/>
	<path fill="#959DAD" d="M-1,5.3h3.9v11.6H-1V5.3z"/>
	<path fill="#959DAD" d="M2.9,2.1C2.9,3.1,2,4,0.9,4S-1,3.1-1,2.1s0.9-1.9,1.9-1.9S2.9,1,2.9,2.1z"/>
</g>
</svg>
