<?xml version="1.0" encoding="utf-8"?>
<!-- Generator: Adobe Illustrator 18.0.0, SVG Export Plug-In . SVG Version: 6.00 Build 0)  -->
<!DOCTYPE svg PUBLIC "-//W3C//DTD SVG 1.1//EN" "http://www.w3.org/Graphics/SVG/1.1/DTD/svg11.dtd">
<svg version="1.1" id="Layer_1" xmlns="http://www.w3.org/2000/svg" xmlns:xlink="http://www.w3.org/1999/xlink" x="0px" y="0px"
	 viewBox="-2 -2 20 20" enable-background="new -2 -2 20 20" xml:space="preserve">
<path fill="#959DAD" d="M8-1C3-1-1,3-1,8c0,3.8,2.4,7.1,5.7,8.4c-0.1-0.7-0.2-1.8,0-2.6c0.2-0.7,1.1-4.5,1.1-4.5S5.5,8.8,5.5,8
	c0-1.3,0.7-2.2,1.6-2.2c0.8,0,1.1,0.6,1.1,1.3c0,0.8-0.5,1.9-0.7,3C7.3,11,8,11.7,8.9,11.7c1.6,0,2.8-1.7,2.8-4.1
	c0-2.2-1.6-3.7-3.8-3.7c-2.6,0-4.1,1.9-4.1,3.9c0,0.8,0.3,1.6,0.7,2.1C4.6,10,4.7,10,4.6,10.1c-0.1,0.3-0.2,0.9-0.3,1
	c0,0.2-0.1,0.2-0.3,0.1C3,10.7,2.3,9.1,2.3,7.8c0-2.8,2.1-5.4,5.9-5.4c3.1,0,5.5,2.2,5.5,5.2c0,3.1-2,5.6-4.7,5.6
	c-0.9,0-1.8-0.5-2.1-1c0,0-0.5,1.7-0.6,2.1C6.3,15,5.7,16,5.3,16.6C6.2,16.9,7.1,17,8,17c5,0,9-4,9-9C17,3,13-1,8-1L8-1z"/>
</svg>
