<?xml version="1.0" encoding="utf-8"?>
<!-- Generator: Adobe Illustrator 18.0.0, SVG Export Plug-In . SVG Version: 6.00 Build 0)  -->
<!DOCTYPE svg PUBLIC "-//W3C//DTD SVG 1.1//EN" "http://www.w3.org/Graphics/SVG/1.1/DTD/svg11.dtd">
<svg version="1.1" id="Layer_1" xmlns="http://www.w3.org/2000/svg" xmlns:xlink="http://www.w3.org/1999/xlink" x="0px" y="0px"
	 viewBox="-2 -2 20 20" enable-background="new -2 -2 20 20" xml:space="preserve">
<path fill="#959DAD" d="M3,10.3C3,9.6,3.6,9,4.3,9s1.3,0.6,1.3,1.3c0,0.7-0.6,1.3-1.3,1.3S3,10.9,3,10.3z M10.5,10.3
	c0-0.7,0.6-1.3,1.3-1.3c0.7,0,1.3,0.6,1.3,1.3c0,0.7-0.6,1.3-1.3,1.3C11.1,11.5,10.5,10.9,10.5,10.3z M10.6,12.9
	c0.3-0.3,0.8-0.2,1,0.1s0.2,0.8-0.1,1c-0.9,0.7-2.3,1.2-3.5,1.2s-2.6-0.5-3.5-1.2c-0.3-0.3-0.4-0.7-0.1-1c0.3-0.3,0.7-0.4,1-0.1
	C6,13.3,7,13.8,8,13.8S10,13.3,10.6,12.9L10.6,12.9z M18,7.8c0-1.4-1.1-2.5-2.5-2.5c-0.9,0-1.8,0.5-2.2,1.3C12,5.8,10.5,5.4,8.8,5.3
	l1.5-3.3l2.9,0.8c0.3,0.7,1,1.3,1.8,1.3c1,0,1.9-0.8,1.9-1.9s-0.8-1.9-1.9-1.9c-0.7,0-1.3,0.4-1.7,1L10,0.3C9.7,0.2,9.3,0.4,9.2,0.7
	l-2,4.6C5.5,5.4,3.9,5.8,2.7,6.5C2.3,5.8,1.4,5.2,0.5,5.2C-0.9,5.2-2,6.4-2,7.7c0,1,0.6,1.9,1.5,2.3c-0.2,0.5-0.2,1-0.2,1.5
	c0,3.5,3.9,6.2,8.8,6.2s8.8-2.8,8.8-6.2c0-0.5-0.1-1-0.2-1.5C17.4,9.6,18,8.8,18,7.8L18,7.8z M14.9,1.4c0.4,0,0.7,0.3,0.7,0.7
	s-0.3,0.7-0.7,0.7s-0.7-0.3-0.7-0.7S14.5,1.4,14.9,1.4z M-0.7,7.8c0-0.7,0.6-1.3,1.3-1.3c0.5,0,0.9,0.3,1.1,0.7C1,7.7,0.4,8.3,0,8.9
	C-0.4,8.7-0.7,8.3-0.7,7.8z M8,16.3c-4,0-7.3-2.1-7.3-4.8S4,6.7,8,6.7c4,0,7.3,2.1,7.3,4.8S12,16.3,8,16.3z M16,8.9
	c-0.4-0.6-0.9-1.2-1.6-1.7c0.2-0.4,0.6-0.7,1.1-0.7c0.7,0,1.3,0.6,1.3,1.2C16.8,8.3,16.4,8.7,16,8.9z"/>
</svg>
